<mxfile host="app.diagrams.net" agent="Mozilla/5.0 (Macintosh; Intel Mac OS X 10_15_7) AppleWebKit/537.36 (KHTML, like Gecko) Chrome/129.0.0.0 Safari/537.36" version="24.7.16">
  <diagram id="C5RBs43oDa-KdzZeNtuy" name="Page-1">
    <mxGraphModel dx="1176" dy="445" grid="1" gridSize="10" guides="1" tooltips="1" connect="1" arrows="1" fold="1" page="1" pageScale="1" pageWidth="827" pageHeight="1169" math="0" shadow="0">
      <root>
        <mxCell id="WIyWlLk6GJQsqaUBKTNV-0" />
        <mxCell id="WIyWlLk6GJQsqaUBKTNV-1" parent="WIyWlLk6GJQsqaUBKTNV-0" />
        <mxCell id="FpqdJy0Io9GTkE2flj1a-0" value="User Query" style="ellipse;whiteSpace=wrap;html=1;fillColor=#f8cecc;strokeColor=#b85450;" parent="WIyWlLk6GJQsqaUBKTNV-1" vertex="1">
          <mxGeometry x="30" y="724.5" width="80" height="35" as="geometry" />
        </mxCell>
        <mxCell id="FpqdJy0Io9GTkE2flj1a-1" value="Sub Query 1" style="ellipse;whiteSpace=wrap;html=1;fillColor=#fff2cc;strokeColor=#d6b656;" parent="WIyWlLk6GJQsqaUBKTNV-1" vertex="1">
          <mxGeometry x="150" y="462.5" width="80" height="35" as="geometry" />
        </mxCell>
        <mxCell id="FpqdJy0Io9GTkE2flj1a-2" value="Sub Query 2" style="ellipse;whiteSpace=wrap;html=1;fillColor=#fff2cc;strokeColor=#d6b656;" parent="WIyWlLk6GJQsqaUBKTNV-1" vertex="1">
          <mxGeometry x="150" y="652.5" width="80" height="35" as="geometry" />
        </mxCell>
        <mxCell id="FpqdJy0Io9GTkE2flj1a-3" value="Sub Query 3" style="ellipse;whiteSpace=wrap;html=1;fillColor=#fff2cc;strokeColor=#d6b656;" parent="WIyWlLk6GJQsqaUBKTNV-1" vertex="1">
          <mxGeometry x="150" y="840" width="80" height="35" as="geometry" />
        </mxCell>
        <mxCell id="FpqdJy0Io9GTkE2flj1a-4" value="Sub Query 4" style="ellipse;whiteSpace=wrap;html=1;fillColor=#fff2cc;strokeColor=#d6b656;" parent="WIyWlLk6GJQsqaUBKTNV-1" vertex="1">
          <mxGeometry x="150" y="1032.5" width="80" height="35" as="geometry" />
        </mxCell>
        <mxCell id="FpqdJy0Io9GTkE2flj1a-5" value="" style="endArrow=classic;html=1;rounded=0;exitX=1;exitY=0.5;exitDx=0;exitDy=0;entryX=0;entryY=0.5;entryDx=0;entryDy=0;" parent="WIyWlLk6GJQsqaUBKTNV-1" source="FpqdJy0Io9GTkE2flj1a-0" target="FpqdJy0Io9GTkE2flj1a-1" edge="1">
          <mxGeometry width="50" height="50" relative="1" as="geometry">
            <mxPoint x="400" y="542.5" as="sourcePoint" />
            <mxPoint x="450" y="492.5" as="targetPoint" />
          </mxGeometry>
        </mxCell>
        <mxCell id="FpqdJy0Io9GTkE2flj1a-6" value="" style="endArrow=classic;html=1;rounded=0;entryX=0;entryY=0.5;entryDx=0;entryDy=0;exitX=1;exitY=0.5;exitDx=0;exitDy=0;" parent="WIyWlLk6GJQsqaUBKTNV-1" source="FpqdJy0Io9GTkE2flj1a-0" target="FpqdJy0Io9GTkE2flj1a-2" edge="1">
          <mxGeometry width="50" height="50" relative="1" as="geometry">
            <mxPoint x="110" y="722.5" as="sourcePoint" />
            <mxPoint x="160" y="660.5" as="targetPoint" />
          </mxGeometry>
        </mxCell>
        <mxCell id="FpqdJy0Io9GTkE2flj1a-7" value="" style="endArrow=classic;html=1;rounded=0;exitX=1;exitY=0.5;exitDx=0;exitDy=0;entryX=0;entryY=0.5;entryDx=0;entryDy=0;" parent="WIyWlLk6GJQsqaUBKTNV-1" source="FpqdJy0Io9GTkE2flj1a-0" target="FpqdJy0Io9GTkE2flj1a-3" edge="1">
          <mxGeometry width="50" height="50" relative="1" as="geometry">
            <mxPoint x="130" y="745.5" as="sourcePoint" />
            <mxPoint x="170" y="670.5" as="targetPoint" />
          </mxGeometry>
        </mxCell>
        <mxCell id="FpqdJy0Io9GTkE2flj1a-8" value="" style="endArrow=classic;html=1;rounded=0;exitX=1;exitY=0.5;exitDx=0;exitDy=0;entryX=0;entryY=0.5;entryDx=0;entryDy=0;" parent="WIyWlLk6GJQsqaUBKTNV-1" source="FpqdJy0Io9GTkE2flj1a-0" target="FpqdJy0Io9GTkE2flj1a-4" edge="1">
          <mxGeometry width="50" height="50" relative="1" as="geometry">
            <mxPoint x="140" y="755.5" as="sourcePoint" />
            <mxPoint x="180" y="680.5" as="targetPoint" />
          </mxGeometry>
        </mxCell>
        <mxCell id="FpqdJy0Io9GTkE2flj1a-9" value="Cache Hit (Vector Database Similarity Score)" style="rhombus;whiteSpace=wrap;html=1;shadow=0;fontFamily=Helvetica;fontSize=12;align=center;strokeWidth=1;spacing=6;spacingTop=-4;fillColor=#d5e8d4;strokeColor=#82b366;" parent="WIyWlLk6GJQsqaUBKTNV-1" vertex="1">
          <mxGeometry x="370" y="669.93" width="120" height="144.13" as="geometry" />
        </mxCell>
        <mxCell id="FpqdJy0Io9GTkE2flj1a-13" value="Embedding Generator" style="rounded=1;whiteSpace=wrap;html=1;fontSize=12;glass=0;strokeWidth=1;shadow=0;fillColor=#dae8fc;strokeColor=#6c8ebf;" parent="WIyWlLk6GJQsqaUBKTNV-1" vertex="1">
          <mxGeometry x="270" y="722" width="76" height="40" as="geometry" />
        </mxCell>
        <mxCell id="FpqdJy0Io9GTkE2flj1a-21" value="" style="endArrow=classic;html=1;rounded=0;exitX=1;exitY=0.5;exitDx=0;exitDy=0;entryX=0;entryY=0.5;entryDx=0;entryDy=0;" parent="WIyWlLk6GJQsqaUBKTNV-1" source="FpqdJy0Io9GTkE2flj1a-13" target="FpqdJy0Io9GTkE2flj1a-9" edge="1">
          <mxGeometry width="50" height="50" relative="1" as="geometry">
            <mxPoint x="366" y="780" as="sourcePoint" />
            <mxPoint x="420" y="745" as="targetPoint" />
          </mxGeometry>
        </mxCell>
        <mxCell id="FpqdJy0Io9GTkE2flj1a-22" value="" style="endArrow=classic;html=1;rounded=0;exitX=1;exitY=0.5;exitDx=0;exitDy=0;entryX=0;entryY=0.5;entryDx=0;entryDy=0;" parent="WIyWlLk6GJQsqaUBKTNV-1" source="FpqdJy0Io9GTkE2flj1a-1" target="FpqdJy0Io9GTkE2flj1a-13" edge="1">
          <mxGeometry width="50" height="50" relative="1" as="geometry">
            <mxPoint x="390" y="660" as="sourcePoint" />
            <mxPoint x="440" y="610" as="targetPoint" />
          </mxGeometry>
        </mxCell>
        <mxCell id="FpqdJy0Io9GTkE2flj1a-23" value="" style="endArrow=classic;html=1;rounded=0;exitX=1;exitY=0.5;exitDx=0;exitDy=0;entryX=0;entryY=0.5;entryDx=0;entryDy=0;" parent="WIyWlLk6GJQsqaUBKTNV-1" source="FpqdJy0Io9GTkE2flj1a-2" target="FpqdJy0Io9GTkE2flj1a-13" edge="1">
          <mxGeometry width="50" height="50" relative="1" as="geometry">
            <mxPoint x="240" y="640" as="sourcePoint" />
            <mxPoint x="270" y="730" as="targetPoint" />
          </mxGeometry>
        </mxCell>
        <mxCell id="FpqdJy0Io9GTkE2flj1a-24" value="" style="endArrow=classic;html=1;rounded=0;exitX=1;exitY=0.5;exitDx=0;exitDy=0;entryX=0;entryY=0.5;entryDx=0;entryDy=0;" parent="WIyWlLk6GJQsqaUBKTNV-1" source="FpqdJy0Io9GTkE2flj1a-3" target="FpqdJy0Io9GTkE2flj1a-13" edge="1">
          <mxGeometry width="50" height="50" relative="1" as="geometry">
            <mxPoint x="250" y="650" as="sourcePoint" />
            <mxPoint x="290" y="750" as="targetPoint" />
          </mxGeometry>
        </mxCell>
        <mxCell id="FpqdJy0Io9GTkE2flj1a-25" value="" style="endArrow=classic;html=1;rounded=0;exitX=1;exitY=0.5;exitDx=0;exitDy=0;entryX=0;entryY=0.5;entryDx=0;entryDy=0;" parent="WIyWlLk6GJQsqaUBKTNV-1" source="FpqdJy0Io9GTkE2flj1a-4" target="FpqdJy0Io9GTkE2flj1a-13" edge="1">
          <mxGeometry width="50" height="50" relative="1" as="geometry">
            <mxPoint x="260" y="660" as="sourcePoint" />
            <mxPoint x="300" y="760" as="targetPoint" />
          </mxGeometry>
        </mxCell>
        <mxCell id="FpqdJy0Io9GTkE2flj1a-27" value="Local Response 2" style="ellipse;whiteSpace=wrap;html=1;fillColor=#b0e3e6;strokeColor=#0e8088;" parent="WIyWlLk6GJQsqaUBKTNV-1" vertex="1">
          <mxGeometry x="550" y="570" width="140" height="35" as="geometry" />
        </mxCell>
        <mxCell id="FpqdJy0Io9GTkE2flj1a-28" value="Global Response 2 for Community 1" style="ellipse;whiteSpace=wrap;html=1;fillColor=#d0cee2;strokeColor=#56517e;" parent="WIyWlLk6GJQsqaUBKTNV-1" vertex="1">
          <mxGeometry x="550" y="610" width="140" height="35" as="geometry" />
        </mxCell>
        <mxCell id="FpqdJy0Io9GTkE2flj1a-29" value="Global Response 2 for Community 2" style="ellipse;whiteSpace=wrap;html=1;fillColor=#d0cee2;strokeColor=#56517e;" parent="WIyWlLk6GJQsqaUBKTNV-1" vertex="1">
          <mxGeometry x="550" y="652.5" width="140" height="35" as="geometry" />
        </mxCell>
        <mxCell id="FpqdJy0Io9GTkE2flj1a-31" value="&lt;span style=&quot;font-weight: normal;&quot;&gt;Global Response 2 for Community 3&lt;/span&gt;" style="ellipse;whiteSpace=wrap;html=1;fontStyle=1;fillColor=#d0cee2;strokeColor=#56517e;" parent="WIyWlLk6GJQsqaUBKTNV-1" vertex="1">
          <mxGeometry x="550" y="695" width="140" height="35" as="geometry" />
        </mxCell>
        <mxCell id="FpqdJy0Io9GTkE2flj1a-65" value="" style="edgeStyle=orthogonalEdgeStyle;rounded=0;orthogonalLoop=1;jettySize=auto;html=1;" parent="WIyWlLk6GJQsqaUBKTNV-1" source="FpqdJy0Io9GTkE2flj1a-32" target="FpqdJy0Io9GTkE2flj1a-62" edge="1">
          <mxGeometry relative="1" as="geometry" />
        </mxCell>
        <mxCell id="FpqdJy0Io9GTkE2flj1a-32" value="Aggregated Global Response 2" style="ellipse;whiteSpace=wrap;html=1;fillColor=#fad7ac;strokeColor=#b46504;" parent="WIyWlLk6GJQsqaUBKTNV-1" vertex="1">
          <mxGeometry x="720" y="652.5" width="120" height="35" as="geometry" />
        </mxCell>
        <mxCell id="FpqdJy0Io9GTkE2flj1a-33" value="" style="endArrow=classic;html=1;rounded=0;exitX=1;exitY=0.5;exitDx=0;exitDy=0;entryX=0;entryY=0.5;entryDx=0;entryDy=0;" parent="WIyWlLk6GJQsqaUBKTNV-1" source="FpqdJy0Io9GTkE2flj1a-28" target="FpqdJy0Io9GTkE2flj1a-32" edge="1">
          <mxGeometry width="50" height="50" relative="1" as="geometry">
            <mxPoint x="690" y="622.5" as="sourcePoint" />
            <mxPoint x="730" y="722.5" as="targetPoint" />
          </mxGeometry>
        </mxCell>
        <mxCell id="FpqdJy0Io9GTkE2flj1a-34" value="" style="endArrow=classic;html=1;rounded=0;exitX=1;exitY=0.5;exitDx=0;exitDy=0;entryX=0;entryY=0.5;entryDx=0;entryDy=0;" parent="WIyWlLk6GJQsqaUBKTNV-1" source="FpqdJy0Io9GTkE2flj1a-29" target="FpqdJy0Io9GTkE2flj1a-32" edge="1">
          <mxGeometry width="50" height="50" relative="1" as="geometry">
            <mxPoint x="700" y="638" as="sourcePoint" />
            <mxPoint x="730" y="680" as="targetPoint" />
          </mxGeometry>
        </mxCell>
        <mxCell id="FpqdJy0Io9GTkE2flj1a-35" value="" style="endArrow=classic;html=1;rounded=0;exitX=1;exitY=0.5;exitDx=0;exitDy=0;entryX=0;entryY=0.5;entryDx=0;entryDy=0;" parent="WIyWlLk6GJQsqaUBKTNV-1" source="FpqdJy0Io9GTkE2flj1a-31" target="FpqdJy0Io9GTkE2flj1a-32" edge="1">
          <mxGeometry width="50" height="50" relative="1" as="geometry">
            <mxPoint x="710" y="648" as="sourcePoint" />
            <mxPoint x="740" y="690" as="targetPoint" />
          </mxGeometry>
        </mxCell>
        <mxCell id="FpqdJy0Io9GTkE2flj1a-36" value="Local Response 3" style="ellipse;whiteSpace=wrap;html=1;fillColor=#b0e3e6;strokeColor=#0e8088;" parent="WIyWlLk6GJQsqaUBKTNV-1" vertex="1">
          <mxGeometry x="550" y="757.5" width="140" height="32.5" as="geometry" />
        </mxCell>
        <mxCell id="FpqdJy0Io9GTkE2flj1a-37" value="Global Response 3 for Community 1" style="ellipse;whiteSpace=wrap;html=1;fillColor=#d0cee2;strokeColor=#56517e;" parent="WIyWlLk6GJQsqaUBKTNV-1" vertex="1">
          <mxGeometry x="550" y="797.5" width="140" height="35" as="geometry" />
        </mxCell>
        <mxCell id="FpqdJy0Io9GTkE2flj1a-38" value="Global Response 3 for Community 2" style="ellipse;whiteSpace=wrap;html=1;fillColor=#d0cee2;strokeColor=#56517e;" parent="WIyWlLk6GJQsqaUBKTNV-1" vertex="1">
          <mxGeometry x="550" y="840" width="140" height="35" as="geometry" />
        </mxCell>
        <mxCell id="FpqdJy0Io9GTkE2flj1a-39" value="&lt;span style=&quot;font-weight: normal;&quot;&gt;Global Response 3 for Community 3&lt;/span&gt;" style="ellipse;whiteSpace=wrap;html=1;fontStyle=1;fillColor=#d0cee2;strokeColor=#56517e;" parent="WIyWlLk6GJQsqaUBKTNV-1" vertex="1">
          <mxGeometry x="550" y="882.5" width="140" height="35" as="geometry" />
        </mxCell>
        <mxCell id="FpqdJy0Io9GTkE2flj1a-66" value="" style="edgeStyle=orthogonalEdgeStyle;rounded=0;orthogonalLoop=1;jettySize=auto;html=1;" parent="WIyWlLk6GJQsqaUBKTNV-1" source="FpqdJy0Io9GTkE2flj1a-40" target="FpqdJy0Io9GTkE2flj1a-63" edge="1">
          <mxGeometry relative="1" as="geometry" />
        </mxCell>
        <mxCell id="FpqdJy0Io9GTkE2flj1a-40" value="Aggregated Global Response 3" style="ellipse;whiteSpace=wrap;html=1;fillColor=#fad7ac;strokeColor=#b46504;" parent="WIyWlLk6GJQsqaUBKTNV-1" vertex="1">
          <mxGeometry x="720" y="840" width="120" height="35" as="geometry" />
        </mxCell>
        <mxCell id="FpqdJy0Io9GTkE2flj1a-41" value="" style="endArrow=classic;html=1;rounded=0;exitX=1;exitY=0.5;exitDx=0;exitDy=0;entryX=0;entryY=0.5;entryDx=0;entryDy=0;" parent="WIyWlLk6GJQsqaUBKTNV-1" source="FpqdJy0Io9GTkE2flj1a-37" target="FpqdJy0Io9GTkE2flj1a-40" edge="1">
          <mxGeometry width="50" height="50" relative="1" as="geometry">
            <mxPoint x="690" y="810" as="sourcePoint" />
            <mxPoint x="730" y="910" as="targetPoint" />
          </mxGeometry>
        </mxCell>
        <mxCell id="FpqdJy0Io9GTkE2flj1a-42" value="" style="endArrow=classic;html=1;rounded=0;exitX=1;exitY=0.5;exitDx=0;exitDy=0;entryX=0;entryY=0.5;entryDx=0;entryDy=0;" parent="WIyWlLk6GJQsqaUBKTNV-1" source="FpqdJy0Io9GTkE2flj1a-38" target="FpqdJy0Io9GTkE2flj1a-40" edge="1">
          <mxGeometry width="50" height="50" relative="1" as="geometry">
            <mxPoint x="700" y="825.5" as="sourcePoint" />
            <mxPoint x="730" y="867.5" as="targetPoint" />
          </mxGeometry>
        </mxCell>
        <mxCell id="FpqdJy0Io9GTkE2flj1a-43" value="" style="endArrow=classic;html=1;rounded=0;exitX=1;exitY=0.5;exitDx=0;exitDy=0;entryX=0;entryY=0.5;entryDx=0;entryDy=0;" parent="WIyWlLk6GJQsqaUBKTNV-1" source="FpqdJy0Io9GTkE2flj1a-39" target="FpqdJy0Io9GTkE2flj1a-40" edge="1">
          <mxGeometry width="50" height="50" relative="1" as="geometry">
            <mxPoint x="710" y="835.5" as="sourcePoint" />
            <mxPoint x="740" y="877.5" as="targetPoint" />
          </mxGeometry>
        </mxCell>
        <mxCell id="FpqdJy0Io9GTkE2flj1a-44" value="Local Response 4" style="ellipse;whiteSpace=wrap;html=1;fillColor=#b0e3e6;strokeColor=#0e8088;" parent="WIyWlLk6GJQsqaUBKTNV-1" vertex="1">
          <mxGeometry x="550" y="950" width="140" height="35" as="geometry" />
        </mxCell>
        <mxCell id="FpqdJy0Io9GTkE2flj1a-45" value="Global Response 4 for Community 1" style="ellipse;whiteSpace=wrap;html=1;fillColor=#d0cee2;strokeColor=#56517e;" parent="WIyWlLk6GJQsqaUBKTNV-1" vertex="1">
          <mxGeometry x="550" y="990" width="140" height="35" as="geometry" />
        </mxCell>
        <mxCell id="FpqdJy0Io9GTkE2flj1a-46" value="Global Response 4 for Community 2" style="ellipse;whiteSpace=wrap;html=1;fillColor=#d0cee2;strokeColor=#56517e;" parent="WIyWlLk6GJQsqaUBKTNV-1" vertex="1">
          <mxGeometry x="550" y="1032.5" width="140" height="35" as="geometry" />
        </mxCell>
        <mxCell id="FpqdJy0Io9GTkE2flj1a-47" value="&lt;span style=&quot;font-weight: normal;&quot;&gt;Global Response 4 for Community 3&lt;/span&gt;" style="ellipse;whiteSpace=wrap;html=1;fontStyle=1;fillColor=#d0cee2;strokeColor=#56517e;" parent="WIyWlLk6GJQsqaUBKTNV-1" vertex="1">
          <mxGeometry x="550" y="1075" width="140" height="35" as="geometry" />
        </mxCell>
        <mxCell id="FpqdJy0Io9GTkE2flj1a-67" value="" style="edgeStyle=orthogonalEdgeStyle;rounded=0;orthogonalLoop=1;jettySize=auto;html=1;" parent="WIyWlLk6GJQsqaUBKTNV-1" source="FpqdJy0Io9GTkE2flj1a-48" target="FpqdJy0Io9GTkE2flj1a-64" edge="1">
          <mxGeometry relative="1" as="geometry" />
        </mxCell>
        <mxCell id="FpqdJy0Io9GTkE2flj1a-48" value="Aggregated Global Response 4" style="ellipse;whiteSpace=wrap;html=1;fillColor=#fad7ac;strokeColor=#b46504;" parent="WIyWlLk6GJQsqaUBKTNV-1" vertex="1">
          <mxGeometry x="720" y="1032.5" width="120" height="35" as="geometry" />
        </mxCell>
        <mxCell id="FpqdJy0Io9GTkE2flj1a-49" value="" style="endArrow=classic;html=1;rounded=0;exitX=1;exitY=0.5;exitDx=0;exitDy=0;entryX=0;entryY=0.5;entryDx=0;entryDy=0;" parent="WIyWlLk6GJQsqaUBKTNV-1" source="FpqdJy0Io9GTkE2flj1a-45" target="FpqdJy0Io9GTkE2flj1a-48" edge="1">
          <mxGeometry width="50" height="50" relative="1" as="geometry">
            <mxPoint x="690" y="1002.5" as="sourcePoint" />
            <mxPoint x="730" y="1102.5" as="targetPoint" />
          </mxGeometry>
        </mxCell>
        <mxCell id="FpqdJy0Io9GTkE2flj1a-50" value="" style="endArrow=classic;html=1;rounded=0;exitX=1;exitY=0.5;exitDx=0;exitDy=0;entryX=0;entryY=0.5;entryDx=0;entryDy=0;" parent="WIyWlLk6GJQsqaUBKTNV-1" source="FpqdJy0Io9GTkE2flj1a-46" target="FpqdJy0Io9GTkE2flj1a-48" edge="1">
          <mxGeometry width="50" height="50" relative="1" as="geometry">
            <mxPoint x="700" y="1018" as="sourcePoint" />
            <mxPoint x="730" y="1060" as="targetPoint" />
          </mxGeometry>
        </mxCell>
        <mxCell id="FpqdJy0Io9GTkE2flj1a-51" value="" style="endArrow=classic;html=1;rounded=0;exitX=1;exitY=0.5;exitDx=0;exitDy=0;entryX=0;entryY=0.5;entryDx=0;entryDy=0;" parent="WIyWlLk6GJQsqaUBKTNV-1" source="FpqdJy0Io9GTkE2flj1a-47" target="FpqdJy0Io9GTkE2flj1a-48" edge="1">
          <mxGeometry width="50" height="50" relative="1" as="geometry">
            <mxPoint x="710" y="1028" as="sourcePoint" />
            <mxPoint x="740" y="1070" as="targetPoint" />
          </mxGeometry>
        </mxCell>
        <mxCell id="FpqdJy0Io9GTkE2flj1a-52" value="Local Response 1" style="ellipse;whiteSpace=wrap;html=1;fillColor=#b0e3e6;strokeColor=#0e8088;" parent="WIyWlLk6GJQsqaUBKTNV-1" vertex="1">
          <mxGeometry x="550" y="380" width="140" height="35" as="geometry" />
        </mxCell>
        <mxCell id="FpqdJy0Io9GTkE2flj1a-53" value="Global Response 1 for Community 1" style="ellipse;whiteSpace=wrap;html=1;fillColor=#d0cee2;strokeColor=#56517e;" parent="WIyWlLk6GJQsqaUBKTNV-1" vertex="1">
          <mxGeometry x="550" y="420" width="140" height="35" as="geometry" />
        </mxCell>
        <mxCell id="FpqdJy0Io9GTkE2flj1a-54" value="Global Response 1 for Community 2" style="ellipse;whiteSpace=wrap;html=1;fillColor=#d0cee2;strokeColor=#56517e;" parent="WIyWlLk6GJQsqaUBKTNV-1" vertex="1">
          <mxGeometry x="550" y="462.5" width="140" height="35" as="geometry" />
        </mxCell>
        <mxCell id="FpqdJy0Io9GTkE2flj1a-55" value="&lt;span style=&quot;font-weight: normal;&quot;&gt;Global Response 1 for Community 3&lt;/span&gt;" style="ellipse;whiteSpace=wrap;html=1;fontStyle=1;fillColor=#d0cee2;strokeColor=#56517e;" parent="WIyWlLk6GJQsqaUBKTNV-1" vertex="1">
          <mxGeometry x="550" y="505" width="140" height="35" as="geometry" />
        </mxCell>
        <mxCell id="FpqdJy0Io9GTkE2flj1a-61" value="" style="edgeStyle=orthogonalEdgeStyle;rounded=0;orthogonalLoop=1;jettySize=auto;html=1;" parent="WIyWlLk6GJQsqaUBKTNV-1" source="FpqdJy0Io9GTkE2flj1a-56" target="FpqdJy0Io9GTkE2flj1a-60" edge="1">
          <mxGeometry relative="1" as="geometry" />
        </mxCell>
        <mxCell id="FpqdJy0Io9GTkE2flj1a-56" value="Aggregated Global Response 1" style="ellipse;whiteSpace=wrap;html=1;fillColor=#fad7ac;strokeColor=#b46504;" parent="WIyWlLk6GJQsqaUBKTNV-1" vertex="1">
          <mxGeometry x="720" y="462.5" width="120" height="35" as="geometry" />
        </mxCell>
        <mxCell id="FpqdJy0Io9GTkE2flj1a-57" value="" style="endArrow=classic;html=1;rounded=0;exitX=1;exitY=0.5;exitDx=0;exitDy=0;entryX=0;entryY=0.5;entryDx=0;entryDy=0;" parent="WIyWlLk6GJQsqaUBKTNV-1" source="FpqdJy0Io9GTkE2flj1a-53" target="FpqdJy0Io9GTkE2flj1a-56" edge="1">
          <mxGeometry width="50" height="50" relative="1" as="geometry">
            <mxPoint x="690" y="432.5" as="sourcePoint" />
            <mxPoint x="730" y="532.5" as="targetPoint" />
          </mxGeometry>
        </mxCell>
        <mxCell id="FpqdJy0Io9GTkE2flj1a-58" value="" style="endArrow=classic;html=1;rounded=0;exitX=1;exitY=0.5;exitDx=0;exitDy=0;entryX=0;entryY=0.5;entryDx=0;entryDy=0;" parent="WIyWlLk6GJQsqaUBKTNV-1" source="FpqdJy0Io9GTkE2flj1a-54" target="FpqdJy0Io9GTkE2flj1a-56" edge="1">
          <mxGeometry width="50" height="50" relative="1" as="geometry">
            <mxPoint x="700" y="448" as="sourcePoint" />
            <mxPoint x="730" y="490" as="targetPoint" />
          </mxGeometry>
        </mxCell>
        <mxCell id="FpqdJy0Io9GTkE2flj1a-59" value="" style="endArrow=classic;html=1;rounded=0;exitX=1;exitY=0.5;exitDx=0;exitDy=0;entryX=0;entryY=0.5;entryDx=0;entryDy=0;" parent="WIyWlLk6GJQsqaUBKTNV-1" source="FpqdJy0Io9GTkE2flj1a-55" target="FpqdJy0Io9GTkE2flj1a-56" edge="1">
          <mxGeometry width="50" height="50" relative="1" as="geometry">
            <mxPoint x="710" y="458" as="sourcePoint" />
            <mxPoint x="740" y="500" as="targetPoint" />
          </mxGeometry>
        </mxCell>
        <mxCell id="FpqdJy0Io9GTkE2flj1a-60" value="Aggregated Response 1" style="ellipse;whiteSpace=wrap;html=1;fillColor=#cce5ff;strokeColor=#36393d;" parent="WIyWlLk6GJQsqaUBKTNV-1" vertex="1">
          <mxGeometry x="867" y="462.5" width="120" height="35" as="geometry" />
        </mxCell>
        <mxCell id="FpqdJy0Io9GTkE2flj1a-62" value="Aggregated Response 2" style="ellipse;whiteSpace=wrap;html=1;fillColor=#cce5ff;strokeColor=#36393d;" parent="WIyWlLk6GJQsqaUBKTNV-1" vertex="1">
          <mxGeometry x="867" y="652.5" width="120" height="35" as="geometry" />
        </mxCell>
        <mxCell id="FpqdJy0Io9GTkE2flj1a-63" value="Aggregated Response 3" style="ellipse;whiteSpace=wrap;html=1;fillColor=#cce5ff;strokeColor=#36393d;" parent="WIyWlLk6GJQsqaUBKTNV-1" vertex="1">
          <mxGeometry x="867" y="840" width="120" height="35" as="geometry" />
        </mxCell>
        <mxCell id="FpqdJy0Io9GTkE2flj1a-64" value="Aggregated Response 4" style="ellipse;whiteSpace=wrap;html=1;fillColor=#cce5ff;strokeColor=#36393d;" parent="WIyWlLk6GJQsqaUBKTNV-1" vertex="1">
          <mxGeometry x="867" y="1032.5" width="120" height="35" as="geometry" />
        </mxCell>
        <mxCell id="FpqdJy0Io9GTkE2flj1a-68" value="" style="endArrow=classic;html=1;rounded=0;exitX=1;exitY=0.5;exitDx=0;exitDy=0;entryX=0;entryY=0.5;entryDx=0;entryDy=0;" parent="WIyWlLk6GJQsqaUBKTNV-1" source="FpqdJy0Io9GTkE2flj1a-44" target="FpqdJy0Io9GTkE2flj1a-64" edge="1">
          <mxGeometry width="50" height="50" relative="1" as="geometry">
            <mxPoint x="700" y="825" as="sourcePoint" />
            <mxPoint x="730" y="868" as="targetPoint" />
          </mxGeometry>
        </mxCell>
        <mxCell id="FpqdJy0Io9GTkE2flj1a-69" value="" style="endArrow=classic;html=1;rounded=0;exitX=1;exitY=0.5;exitDx=0;exitDy=0;entryX=0;entryY=0.5;entryDx=0;entryDy=0;" parent="WIyWlLk6GJQsqaUBKTNV-1" source="FpqdJy0Io9GTkE2flj1a-36" target="FpqdJy0Io9GTkE2flj1a-63" edge="1">
          <mxGeometry width="50" height="50" relative="1" as="geometry">
            <mxPoint x="710" y="835" as="sourcePoint" />
            <mxPoint x="740" y="878" as="targetPoint" />
          </mxGeometry>
        </mxCell>
        <mxCell id="FpqdJy0Io9GTkE2flj1a-70" value="" style="endArrow=classic;html=1;rounded=0;exitX=1;exitY=0.5;exitDx=0;exitDy=0;entryX=0;entryY=0.5;entryDx=0;entryDy=0;" parent="WIyWlLk6GJQsqaUBKTNV-1" source="FpqdJy0Io9GTkE2flj1a-27" target="FpqdJy0Io9GTkE2flj1a-62" edge="1">
          <mxGeometry width="50" height="50" relative="1" as="geometry">
            <mxPoint x="720" y="845" as="sourcePoint" />
            <mxPoint x="750" y="888" as="targetPoint" />
          </mxGeometry>
        </mxCell>
        <mxCell id="FpqdJy0Io9GTkE2flj1a-71" value="" style="endArrow=classic;html=1;rounded=0;exitX=1;exitY=0.5;exitDx=0;exitDy=0;entryX=0;entryY=0.5;entryDx=0;entryDy=0;" parent="WIyWlLk6GJQsqaUBKTNV-1" source="FpqdJy0Io9GTkE2flj1a-52" target="FpqdJy0Io9GTkE2flj1a-60" edge="1">
          <mxGeometry width="50" height="50" relative="1" as="geometry">
            <mxPoint x="730" y="855" as="sourcePoint" />
            <mxPoint x="760" y="898" as="targetPoint" />
          </mxGeometry>
        </mxCell>
        <mxCell id="FpqdJy0Io9GTkE2flj1a-72" value="Final Answer" style="ellipse;whiteSpace=wrap;html=1;fillColor=#cdeb8b;strokeColor=#36393d;" parent="WIyWlLk6GJQsqaUBKTNV-1" vertex="1">
          <mxGeometry x="1060" y="724.5" width="80" height="35" as="geometry" />
        </mxCell>
        <mxCell id="FpqdJy0Io9GTkE2flj1a-73" value="" style="endArrow=classic;html=1;rounded=0;exitX=1;exitY=0.5;exitDx=0;exitDy=0;entryX=0;entryY=0.5;entryDx=0;entryDy=0;" parent="WIyWlLk6GJQsqaUBKTNV-1" source="FpqdJy0Io9GTkE2flj1a-60" target="FpqdJy0Io9GTkE2flj1a-72" edge="1">
          <mxGeometry width="50" height="50" relative="1" as="geometry">
            <mxPoint x="990" y="485" as="sourcePoint" />
            <mxPoint x="1030" y="585" as="targetPoint" />
          </mxGeometry>
        </mxCell>
        <mxCell id="FpqdJy0Io9GTkE2flj1a-74" value="" style="endArrow=classic;html=1;rounded=0;exitX=1;exitY=0.5;exitDx=0;exitDy=0;entryX=0;entryY=0.5;entryDx=0;entryDy=0;" parent="WIyWlLk6GJQsqaUBKTNV-1" source="FpqdJy0Io9GTkE2flj1a-62" target="FpqdJy0Io9GTkE2flj1a-72" edge="1">
          <mxGeometry width="50" height="50" relative="1" as="geometry">
            <mxPoint x="250" y="650" as="sourcePoint" />
            <mxPoint x="290" y="750" as="targetPoint" />
          </mxGeometry>
        </mxCell>
        <mxCell id="FpqdJy0Io9GTkE2flj1a-75" value="" style="endArrow=classic;html=1;rounded=0;exitX=1;exitY=0.5;exitDx=0;exitDy=0;entryX=0;entryY=0.5;entryDx=0;entryDy=0;" parent="WIyWlLk6GJQsqaUBKTNV-1" source="FpqdJy0Io9GTkE2flj1a-63" target="FpqdJy0Io9GTkE2flj1a-72" edge="1">
          <mxGeometry width="50" height="50" relative="1" as="geometry">
            <mxPoint x="997" y="680" as="sourcePoint" />
            <mxPoint x="1070" y="752" as="targetPoint" />
          </mxGeometry>
        </mxCell>
        <mxCell id="FpqdJy0Io9GTkE2flj1a-76" value="" style="endArrow=classic;html=1;rounded=0;exitX=1;exitY=0.5;exitDx=0;exitDy=0;entryX=0;entryY=0.5;entryDx=0;entryDy=0;" parent="WIyWlLk6GJQsqaUBKTNV-1" source="FpqdJy0Io9GTkE2flj1a-64" target="FpqdJy0Io9GTkE2flj1a-72" edge="1">
          <mxGeometry width="50" height="50" relative="1" as="geometry">
            <mxPoint x="1007" y="690" as="sourcePoint" />
            <mxPoint x="1080" y="762" as="targetPoint" />
          </mxGeometry>
        </mxCell>
        <mxCell id="FpqdJy0Io9GTkE2flj1a-77" value="" style="endArrow=classic;html=1;rounded=0;exitX=0.5;exitY=0;exitDx=0;exitDy=0;entryX=0;entryY=0.5;entryDx=0;entryDy=0;" parent="WIyWlLk6GJQsqaUBKTNV-1" source="FpqdJy0Io9GTkE2flj1a-9" target="FpqdJy0Io9GTkE2flj1a-60" edge="1">
          <mxGeometry width="50" height="50" relative="1" as="geometry">
            <mxPoint x="580" y="690" as="sourcePoint" />
            <mxPoint x="630" y="640" as="targetPoint" />
            <Array as="points">
              <mxPoint x="440" y="360" />
              <mxPoint x="867" y="360" />
            </Array>
          </mxGeometry>
        </mxCell>
        <mxCell id="FpqdJy0Io9GTkE2flj1a-78" value="" style="endArrow=classic;html=1;rounded=0;exitX=0;exitY=0.5;exitDx=0;exitDy=0;entryX=0;entryY=0.5;entryDx=0;entryDy=0;" parent="WIyWlLk6GJQsqaUBKTNV-1" source="FpqdJy0Io9GTkE2flj1a-60" target="FpqdJy0Io9GTkE2flj1a-62" edge="1">
          <mxGeometry width="50" height="50" relative="1" as="geometry">
            <mxPoint x="1017" y="700" as="sourcePoint" />
            <mxPoint x="1090" y="772" as="targetPoint" />
          </mxGeometry>
        </mxCell>
        <mxCell id="FpqdJy0Io9GTkE2flj1a-79" value="" style="endArrow=classic;html=1;rounded=0;exitX=0;exitY=0.5;exitDx=0;exitDy=0;entryX=0;entryY=0.5;entryDx=0;entryDy=0;" parent="WIyWlLk6GJQsqaUBKTNV-1" source="FpqdJy0Io9GTkE2flj1a-62" target="FpqdJy0Io9GTkE2flj1a-63" edge="1">
          <mxGeometry width="50" height="50" relative="1" as="geometry">
            <mxPoint x="997" y="490" as="sourcePoint" />
            <mxPoint x="997" y="680" as="targetPoint" />
          </mxGeometry>
        </mxCell>
        <mxCell id="FpqdJy0Io9GTkE2flj1a-80" value="" style="endArrow=classic;html=1;rounded=0;exitX=0;exitY=0.5;exitDx=0;exitDy=0;entryX=0;entryY=0.5;entryDx=0;entryDy=0;" parent="WIyWlLk6GJQsqaUBKTNV-1" source="FpqdJy0Io9GTkE2flj1a-63" target="FpqdJy0Io9GTkE2flj1a-64" edge="1">
          <mxGeometry width="50" height="50" relative="1" as="geometry">
            <mxPoint x="997" y="680" as="sourcePoint" />
            <mxPoint x="997" y="868" as="targetPoint" />
          </mxGeometry>
        </mxCell>
        <mxCell id="FpqdJy0Io9GTkE2flj1a-81" value="" style="endArrow=classic;html=1;rounded=0;exitX=1;exitY=0.5;exitDx=0;exitDy=0;entryX=0;entryY=0.5;entryDx=0;entryDy=0;" parent="WIyWlLk6GJQsqaUBKTNV-1" source="FpqdJy0Io9GTkE2flj1a-9" target="FpqdJy0Io9GTkE2flj1a-52" edge="1">
          <mxGeometry width="50" height="50" relative="1" as="geometry">
            <mxPoint x="580" y="690" as="sourcePoint" />
            <mxPoint x="630" y="640" as="targetPoint" />
          </mxGeometry>
        </mxCell>
        <mxCell id="FpqdJy0Io9GTkE2flj1a-82" value="" style="endArrow=classic;html=1;rounded=0;exitX=1;exitY=0.5;exitDx=0;exitDy=0;entryX=0;entryY=0.5;entryDx=0;entryDy=0;" parent="WIyWlLk6GJQsqaUBKTNV-1" source="FpqdJy0Io9GTkE2flj1a-9" target="FpqdJy0Io9GTkE2flj1a-53" edge="1">
          <mxGeometry width="50" height="50" relative="1" as="geometry">
            <mxPoint x="500" y="740" as="sourcePoint" />
            <mxPoint x="560" y="407" as="targetPoint" />
          </mxGeometry>
        </mxCell>
        <mxCell id="FpqdJy0Io9GTkE2flj1a-83" value="" style="endArrow=classic;html=1;rounded=0;exitX=1;exitY=0.5;exitDx=0;exitDy=0;entryX=0;entryY=0.5;entryDx=0;entryDy=0;" parent="WIyWlLk6GJQsqaUBKTNV-1" source="FpqdJy0Io9GTkE2flj1a-9" target="FpqdJy0Io9GTkE2flj1a-54" edge="1">
          <mxGeometry width="50" height="50" relative="1" as="geometry">
            <mxPoint x="510" y="750" as="sourcePoint" />
            <mxPoint x="570" y="417" as="targetPoint" />
          </mxGeometry>
        </mxCell>
        <mxCell id="FpqdJy0Io9GTkE2flj1a-84" value="" style="endArrow=classic;html=1;rounded=0;exitX=1;exitY=0.5;exitDx=0;exitDy=0;entryX=0;entryY=0.5;entryDx=0;entryDy=0;" parent="WIyWlLk6GJQsqaUBKTNV-1" source="FpqdJy0Io9GTkE2flj1a-9" target="FpqdJy0Io9GTkE2flj1a-55" edge="1">
          <mxGeometry width="50" height="50" relative="1" as="geometry">
            <mxPoint x="500" y="740" as="sourcePoint" />
            <mxPoint x="560" y="490" as="targetPoint" />
          </mxGeometry>
        </mxCell>
        <mxCell id="FpqdJy0Io9GTkE2flj1a-85" value="" style="endArrow=classic;html=1;rounded=0;exitX=1;exitY=0.5;exitDx=0;exitDy=0;entryX=0;entryY=0.5;entryDx=0;entryDy=0;" parent="WIyWlLk6GJQsqaUBKTNV-1" source="FpqdJy0Io9GTkE2flj1a-9" target="FpqdJy0Io9GTkE2flj1a-27" edge="1">
          <mxGeometry width="50" height="50" relative="1" as="geometry">
            <mxPoint x="500" y="740" as="sourcePoint" />
            <mxPoint x="560" y="532" as="targetPoint" />
          </mxGeometry>
        </mxCell>
        <mxCell id="FpqdJy0Io9GTkE2flj1a-86" value="" style="endArrow=classic;html=1;rounded=0;exitX=1;exitY=0.5;exitDx=0;exitDy=0;entryX=0;entryY=0.5;entryDx=0;entryDy=0;" parent="WIyWlLk6GJQsqaUBKTNV-1" source="FpqdJy0Io9GTkE2flj1a-9" target="FpqdJy0Io9GTkE2flj1a-28" edge="1">
          <mxGeometry width="50" height="50" relative="1" as="geometry">
            <mxPoint x="500" y="740" as="sourcePoint" />
            <mxPoint x="560" y="597" as="targetPoint" />
          </mxGeometry>
        </mxCell>
        <mxCell id="FpqdJy0Io9GTkE2flj1a-87" value="" style="endArrow=classic;html=1;rounded=0;exitX=1;exitY=0.5;exitDx=0;exitDy=0;entryX=0;entryY=0.5;entryDx=0;entryDy=0;" parent="WIyWlLk6GJQsqaUBKTNV-1" source="FpqdJy0Io9GTkE2flj1a-9" target="FpqdJy0Io9GTkE2flj1a-29" edge="1">
          <mxGeometry width="50" height="50" relative="1" as="geometry">
            <mxPoint x="500" y="740" as="sourcePoint" />
            <mxPoint x="560" y="638" as="targetPoint" />
          </mxGeometry>
        </mxCell>
        <mxCell id="FpqdJy0Io9GTkE2flj1a-88" value="" style="endArrow=classic;html=1;rounded=0;exitX=1;exitY=0.5;exitDx=0;exitDy=0;entryX=0;entryY=0.5;entryDx=0;entryDy=0;" parent="WIyWlLk6GJQsqaUBKTNV-1" source="FpqdJy0Io9GTkE2flj1a-9" target="FpqdJy0Io9GTkE2flj1a-31" edge="1">
          <mxGeometry width="50" height="50" relative="1" as="geometry">
            <mxPoint x="500" y="740" as="sourcePoint" />
            <mxPoint x="560" y="680" as="targetPoint" />
          </mxGeometry>
        </mxCell>
        <mxCell id="FpqdJy0Io9GTkE2flj1a-89" value="" style="endArrow=classic;html=1;rounded=0;exitX=1;exitY=0.5;exitDx=0;exitDy=0;entryX=0;entryY=0.5;entryDx=0;entryDy=0;" parent="WIyWlLk6GJQsqaUBKTNV-1" source="FpqdJy0Io9GTkE2flj1a-9" target="FpqdJy0Io9GTkE2flj1a-36" edge="1">
          <mxGeometry width="50" height="50" relative="1" as="geometry">
            <mxPoint x="500" y="740" as="sourcePoint" />
            <mxPoint x="560" y="723" as="targetPoint" />
          </mxGeometry>
        </mxCell>
        <mxCell id="FpqdJy0Io9GTkE2flj1a-90" value="" style="endArrow=classic;html=1;rounded=0;exitX=1;exitY=0.5;exitDx=0;exitDy=0;entryX=0;entryY=0.5;entryDx=0;entryDy=0;" parent="WIyWlLk6GJQsqaUBKTNV-1" source="FpqdJy0Io9GTkE2flj1a-9" target="FpqdJy0Io9GTkE2flj1a-37" edge="1">
          <mxGeometry width="50" height="50" relative="1" as="geometry">
            <mxPoint x="500" y="740" as="sourcePoint" />
            <mxPoint x="560" y="785" as="targetPoint" />
          </mxGeometry>
        </mxCell>
        <mxCell id="FpqdJy0Io9GTkE2flj1a-91" value="" style="endArrow=classic;html=1;rounded=0;entryX=0;entryY=0.5;entryDx=0;entryDy=0;exitX=1;exitY=0.5;exitDx=0;exitDy=0;" parent="WIyWlLk6GJQsqaUBKTNV-1" source="FpqdJy0Io9GTkE2flj1a-9" target="FpqdJy0Io9GTkE2flj1a-38" edge="1">
          <mxGeometry width="50" height="50" relative="1" as="geometry">
            <mxPoint x="500" y="740" as="sourcePoint" />
            <mxPoint x="560" y="825" as="targetPoint" />
          </mxGeometry>
        </mxCell>
        <mxCell id="FpqdJy0Io9GTkE2flj1a-92" value="" style="endArrow=classic;html=1;rounded=0;entryX=0;entryY=0.5;entryDx=0;entryDy=0;exitX=1;exitY=0.5;exitDx=0;exitDy=0;" parent="WIyWlLk6GJQsqaUBKTNV-1" source="FpqdJy0Io9GTkE2flj1a-9" target="FpqdJy0Io9GTkE2flj1a-39" edge="1">
          <mxGeometry width="50" height="50" relative="1" as="geometry">
            <mxPoint x="500" y="740" as="sourcePoint" />
            <mxPoint x="560" y="868" as="targetPoint" />
          </mxGeometry>
        </mxCell>
        <mxCell id="FpqdJy0Io9GTkE2flj1a-93" value="" style="endArrow=classic;html=1;rounded=0;entryX=0;entryY=0.5;entryDx=0;entryDy=0;exitX=1;exitY=0.5;exitDx=0;exitDy=0;" parent="WIyWlLk6GJQsqaUBKTNV-1" source="FpqdJy0Io9GTkE2flj1a-9" target="FpqdJy0Io9GTkE2flj1a-44" edge="1">
          <mxGeometry width="50" height="50" relative="1" as="geometry">
            <mxPoint x="500" y="740" as="sourcePoint" />
            <mxPoint x="560" y="910" as="targetPoint" />
          </mxGeometry>
        </mxCell>
        <mxCell id="FpqdJy0Io9GTkE2flj1a-94" value="" style="endArrow=classic;html=1;rounded=0;entryX=0;entryY=0.5;entryDx=0;entryDy=0;exitX=1;exitY=0.5;exitDx=0;exitDy=0;" parent="WIyWlLk6GJQsqaUBKTNV-1" source="FpqdJy0Io9GTkE2flj1a-9" target="FpqdJy0Io9GTkE2flj1a-45" edge="1">
          <mxGeometry width="50" height="50" relative="1" as="geometry">
            <mxPoint x="500" y="740" as="sourcePoint" />
            <mxPoint x="560" y="978" as="targetPoint" />
          </mxGeometry>
        </mxCell>
        <mxCell id="FpqdJy0Io9GTkE2flj1a-95" value="" style="endArrow=classic;html=1;rounded=0;entryX=0;entryY=0.5;entryDx=0;entryDy=0;exitX=1;exitY=0.5;exitDx=0;exitDy=0;" parent="WIyWlLk6GJQsqaUBKTNV-1" source="FpqdJy0Io9GTkE2flj1a-9" target="FpqdJy0Io9GTkE2flj1a-46" edge="1">
          <mxGeometry width="50" height="50" relative="1" as="geometry">
            <mxPoint x="500" y="740" as="sourcePoint" />
            <mxPoint x="560" y="1018" as="targetPoint" />
          </mxGeometry>
        </mxCell>
        <mxCell id="FpqdJy0Io9GTkE2flj1a-96" value="" style="endArrow=classic;html=1;rounded=0;entryX=0;entryY=0.5;entryDx=0;entryDy=0;exitX=1;exitY=0.5;exitDx=0;exitDy=0;" parent="WIyWlLk6GJQsqaUBKTNV-1" source="FpqdJy0Io9GTkE2flj1a-9" target="FpqdJy0Io9GTkE2flj1a-47" edge="1">
          <mxGeometry width="50" height="50" relative="1" as="geometry">
            <mxPoint x="510" y="750" as="sourcePoint" />
            <mxPoint x="570" y="1028" as="targetPoint" />
          </mxGeometry>
        </mxCell>
        <mxCell id="FpqdJy0Io9GTkE2flj1a-97" value="No" style="text;html=1;align=center;verticalAlign=middle;whiteSpace=wrap;rounded=0;" parent="WIyWlLk6GJQsqaUBKTNV-1" vertex="1">
          <mxGeometry x="500" y="733.25" width="20" height="17.5" as="geometry" />
        </mxCell>
        <mxCell id="FpqdJy0Io9GTkE2flj1a-98" value="Yes" style="text;html=1;align=center;verticalAlign=middle;whiteSpace=wrap;rounded=0;" parent="WIyWlLk6GJQsqaUBKTNV-1" vertex="1">
          <mxGeometry x="404" y="652.5" width="20" height="17.5" as="geometry" />
        </mxCell>
      </root>
    </mxGraphModel>
  </diagram>
</mxfile>
